<svg width="1877" height="63" viewBox="0 0 1877 63" fill="none" xmlns="http://www.w3.org/2000/svg">
<path d="M42.7191 15.5459H34.9502C33.5199 15.5459 32.3605 16.7053 32.3605 18.1355V25.9044H42.7191C43.0135 25.8979 43.293 26.0349 43.468 26.2719C43.6431 26.5088 43.6923 26.816 43.5996 27.0956L41.6832 32.7928C41.5066 33.3157 41.018 33.6692 40.4661 33.6733H32.3605V53.0956C32.3605 53.8106 31.7807 54.3904 31.0657 54.3904H24.5916C23.8765 54.3904 23.2968 53.8106 23.2968 53.0956V33.6733H19.4123C18.6972 33.6733 18.1175 33.0935 18.1175 32.3785V27.1992C18.1175 26.4842 18.6972 25.9044 19.4123 25.9044H23.2968V18.1355C23.2968 12.4146 27.9346 7.77693 33.6554 7.77693H42.7191C43.4341 7.77693 44.0139 8.35665 44.0139 9.07175V14.251C44.0139 14.9661 43.4341 15.5459 42.7191 15.5459Z" fill="white"/>
<path fill-rule="evenodd" clip-rule="evenodd" d="M134.664 7.77693H113.947C106.796 7.77693 100.999 13.574 100.999 20.7251V41.4422C100.999 48.5933 106.796 54.3904 113.947 54.3904H134.664C141.815 54.3904 147.612 48.5933 147.612 41.4422V20.7251C147.612 13.574 141.815 7.77693 134.664 7.77693ZM143.08 41.4422C143.066 46.0844 139.306 49.8443 134.664 49.8586H113.947C109.304 49.8443 105.545 46.0844 105.53 41.4422V20.7251C105.545 16.0828 109.304 12.323 113.947 12.3088H134.664C139.306 12.323 143.066 16.0828 143.08 20.7251V41.4422ZM136.606 21.3725C138.036 21.3725 139.196 20.2131 139.196 18.7829C139.196 17.3527 138.036 16.1933 136.606 16.1933C135.176 16.1933 134.016 17.3527 134.016 18.7829C134.016 20.2131 135.176 21.3725 136.606 21.3725ZM124.305 19.4303C117.869 19.4303 112.652 24.6477 112.652 31.0837C112.652 37.5197 117.869 42.7371 124.305 42.7371C130.741 42.7371 135.959 37.5197 135.959 31.0837C135.966 27.9909 134.74 25.0228 132.553 22.8359C130.366 20.649 127.398 19.4234 124.305 19.4303ZM117.184 31.0837C117.184 35.0168 120.372 38.2052 124.305 38.2052C128.238 38.2052 131.427 35.0168 131.427 31.0837C131.427 27.1505 128.238 23.9622 124.305 23.9622C120.372 23.9622 117.184 27.1505 117.184 31.0837Z" fill="white"/>
<path d="M240.75 17.392C239.547 18.9964 238.093 20.3958 236.445 21.5364C236.445 21.9555 236.445 22.3746 236.445 22.8169C236.458 30.4275 233.418 37.7251 228.006 43.0738C222.594 48.4224 215.264 51.3746 207.657 51.2684C203.26 51.2832 198.919 50.2792 194.974 48.3349C194.762 48.2419 194.624 48.0316 194.625 47.7993V47.5432C194.625 47.2089 194.896 46.938 195.23 46.938C199.553 46.7953 203.721 45.2967 207.145 42.654C203.233 42.575 199.713 40.2573 198.093 36.6934C198.011 36.4989 198.036 36.2754 198.16 36.1043C198.284 35.9331 198.487 35.8388 198.698 35.8554C199.887 35.9748 201.088 35.8642 202.235 35.5294C197.916 34.6328 194.671 31.0472 194.206 26.6585C194.19 26.448 194.284 26.2442 194.455 26.1204C194.626 25.9969 194.85 25.9713 195.044 26.0533C196.203 26.5648 197.454 26.8341 198.721 26.8447C194.937 24.3609 193.302 19.6364 194.742 15.3432C194.89 14.926 195.247 14.6178 195.682 14.5319C196.116 14.4459 196.563 14.5949 196.859 14.9241C201.966 20.3594 208.983 23.5983 216.431 23.9578C216.24 23.1966 216.146 22.4143 216.152 21.6295C216.221 17.5146 218.767 13.8489 222.598 12.3486C226.428 10.8484 230.785 11.8104 233.629 14.7844C235.567 14.4151 237.441 13.7641 239.191 12.8519C239.319 12.7719 239.481 12.7719 239.61 12.8519C239.69 12.9801 239.69 13.1428 239.61 13.271C238.762 15.2119 237.33 16.8397 235.514 17.9276C237.104 17.7431 238.667 17.3679 240.168 16.81C240.295 16.724 240.461 16.724 240.587 16.81C240.693 16.8584 240.772 16.951 240.803 17.0632C240.835 17.1754 240.815 17.2957 240.75 17.392Z" fill="white"/>
<path fill-rule="evenodd" clip-rule="evenodd" d="M292.644 7.77693H328.899C331.76 7.77693 334.079 10.0958 334.079 12.9562V49.2112C334.079 52.0717 331.76 54.3904 328.899 54.3904H292.644C289.784 54.3904 287.465 52.0717 287.465 49.2112V12.9562C287.465 10.0958 289.784 7.77693 292.644 7.77693ZM300.413 46.6215C301.128 46.6215 301.708 46.0417 301.708 45.3267V27.1992C301.708 26.4842 301.128 25.9044 300.413 25.9044H296.529C295.814 25.9044 295.234 26.4842 295.234 27.1992V45.3267C295.234 46.0417 295.814 46.6215 296.529 46.6215H300.413ZM298.471 23.3148C296.326 23.3148 294.587 21.5756 294.587 19.4303C294.587 17.285 296.326 15.5459 298.471 15.5459C300.616 15.5459 302.356 17.285 302.356 19.4303C302.356 21.5756 300.616 23.3148 298.471 23.3148ZM325.015 46.6215C325.73 46.6215 326.31 46.0417 326.31 45.3267V33.4144C326.394 29.2989 323.351 25.7866 319.266 25.2829C316.41 25.022 313.642 26.356 312.067 28.753V27.1992C312.067 26.4842 311.487 25.9044 310.772 25.9044H306.887C306.172 25.9044 305.593 26.4842 305.593 27.1992V45.3267C305.593 46.0417 306.172 46.6215 306.887 46.6215H310.772C311.487 46.6215 312.067 46.0417 312.067 45.3267V35.6156C312.067 33.4703 313.806 31.7311 315.951 31.7311C318.096 31.7311 319.836 33.4703 319.836 35.6156V45.3267C319.836 46.0417 320.415 46.6215 321.13 46.6215H325.015Z" fill="white"/>
<path fill-rule="evenodd" clip-rule="evenodd" d="M420.912 11.238L424.693 11.6264C429.169 12.1324 432.531 15.953 432.462 20.4571V41.6921C432.531 46.1962 429.169 50.017 424.693 50.5228L421.068 50.9112C409.755 52.0765 398.353 52.0765 387.04 50.9112L383.259 50.5228C378.783 50.017 375.422 46.1962 375.49 41.6921V20.4571C375.422 15.953 378.783 12.1324 383.259 11.6264L386.885 11.238C398.197 10.0727 409.6 10.0727 420.912 11.238ZM401.671 39.4132L411.745 32.6801H411.9C412.443 32.3264 412.771 31.7225 412.771 31.0746C412.771 30.4266 412.443 29.8227 411.9 29.469L401.827 22.736C401.232 22.334 400.464 22.2928 399.83 22.6289C399.195 22.9651 398.798 23.6237 398.797 24.3416V37.8076C398.83 38.476 399.205 39.0802 399.789 39.4065C400.374 39.7328 401.085 39.7354 401.671 39.4132Z" fill="white"/>
<path d="M494.164 5.37318C493.97 5.51827 493.832 5.89779 493.58 6.95822C493.397 7.7284 493.065 8.8781 492.836 9.52551C492.606 10.1729 492.114 11.3003 491.747 12.037C491.369 12.7737 490.716 13.8565 490.292 14.4369C489.857 15.0173 488.952 16.0666 488.253 16.7587C487.554 17.4619 486.065 18.8013 484.931 19.7278C483.797 20.6543 482.434 21.8151 481.907 22.3063C481.38 22.7974 480.647 23.5788 480.257 24.0364C479.879 24.4941 479.398 25.1415 479.192 25.454C478.974 25.7778 478.63 26.3806 478.413 26.7934C478.207 27.2176 477.863 28.0103 477.668 28.5572C477.462 29.1041 477.176 30.1646 477.027 30.9011C476.878 31.6378 476.694 32.8211 476.637 33.5244C476.568 34.2275 476.511 35.5 476.511 36.3373C476.511 37.1856 476.568 38.3688 476.637 38.9603C476.694 39.5632 476.889 40.6348 477.049 41.3379C477.21 42.0412 477.496 43.0457 477.68 43.5704C477.863 44.0951 478.264 45.0214 478.573 45.6354C478.871 46.2494 479.432 47.2094 479.799 47.7563C480.177 48.3032 480.761 49.0845 481.105 49.4864C481.437 49.8881 482.079 50.558 482.525 50.9822C482.961 51.4061 483.659 52.0201 484.072 52.3327C484.484 52.6453 485.206 53.1588 485.676 53.4602C486.145 53.7725 486.924 54.2304 487.394 54.4759C487.864 54.7214 488.849 55.1567 489.571 55.4359C490.292 55.7148 491.381 56.0833 491.976 56.2394C492.572 56.3958 493.764 56.6191 494.611 56.7418C495.459 56.8646 496.719 56.965 497.418 56.965C498.117 56.965 499.297 56.8868 500.053 56.7864C500.809 56.6859 501.92 56.4852 502.516 56.3399C503.111 56.1949 504.097 55.8934 504.692 55.6702C505.288 55.4581 506.319 55.0005 506.983 54.6546C507.648 54.3195 508.519 53.8062 508.931 53.527C509.343 53.2481 510.031 52.7346 510.478 52.3772C510.924 52.0313 511.795 51.2277 512.425 50.5803C513.055 49.944 513.914 48.9506 514.338 48.37C514.762 47.7897 515.415 46.707 515.793 45.9702C516.171 45.2335 516.641 44.1507 516.835 43.5704C517.042 42.9898 517.328 41.9296 517.477 41.2262C517.626 40.5232 517.798 39.2395 517.878 38.38C517.97 37.2079 517.97 36.4266 517.867 35.2545C517.798 34.395 517.637 33.167 517.523 32.5196C517.397 31.8722 517.168 30.89 517.007 30.343C516.835 29.7961 516.526 28.8586 516.297 28.2781C516.068 27.6977 515.656 26.76 515.369 26.2131C515.094 25.6661 514.625 24.8513 514.338 24.4271C514.063 24.0029 513.571 23.3444 513.261 22.976C512.941 22.6077 512.608 22.2728 512.528 22.217C512.436 22.1724 512.173 22.15 511.944 22.1612C511.554 22.1947 511.463 22.2616 511.165 22.7416C510.982 23.0318 512.601 24.6415 510.688 28.6875C509.89 29.8971 509.624 30.5031 508.783 31.4858C507.943 32.4686 507.022 33.4498 505.8 33.4498C504.578 33.4498 505.8 29.8779 506.067 26.7489C506.124 25.9898 506.182 24.762 506.182 24.0029C506.182 23.2551 506.101 21.9937 506.01 21.1901C505.918 20.3864 505.712 19.2367 505.563 18.6228C505.414 18.0088 505.093 17.0042 504.864 16.3903C504.624 15.7764 504.211 14.8499 503.948 14.3253C503.673 13.8007 503.146 12.93 502.779 12.3719C502.401 11.8138 501.714 10.9208 501.233 10.3627C500.763 9.80457 499.961 8.98974 499.468 8.53207C498.976 8.08559 498.151 7.4047 497.647 7.01402C497.143 6.63451 496.341 6.05407 495.871 5.74153C495.367 5.40666 494.886 5.17225 494.714 5.17225C494.542 5.17225 494.302 5.26154 494.164 5.36202V5.37318Z" fill="white"/>
</svg>
