<svg width="16" height="16" viewBox="0 0 16 16" fill="none" xmlns="http://www.w3.org/2000/svg">
<path d="M7.99785 9.9998C9.10242 9.9998 9.99784 9.10437 9.99784 7.99981C9.99784 6.89524 9.10242 5.99982 7.99785 5.99982C6.89329 5.99982 5.99786 6.89524 5.99786 7.99981C5.99786 9.10437 6.89329 9.9998 7.99785 9.9998Z" stroke="white" stroke-width="0.999049"/>
<path d="M9.17493 1.43479C8.92987 1.33329 8.61927 1.33329 7.99801 1.33329C7.37674 1.33329 7.06614 1.33329 6.82108 1.43479C6.49439 1.57011 6.23483 1.82968 6.0995 2.15638C6.03773 2.30551 6.01355 2.47895 6.00409 2.73195C5.99019 3.10374 5.79952 3.44788 5.47731 3.6339C5.15511 3.81992 4.76175 3.81297 4.43282 3.63912C4.20899 3.52081 4.0467 3.45503 3.88665 3.43396C3.53606 3.3878 3.18148 3.48281 2.90094 3.69808C2.69053 3.85953 2.53521 4.12854 2.22459 4.66656C1.91396 5.20459 1.75865 5.47359 1.72403 5.73654C1.67788 6.08713 1.77288 6.44171 1.98816 6.72226C2.08641 6.85033 2.2245 6.95793 2.43883 7.0926C2.7539 7.2906 2.95662 7.62786 2.9566 7.99993C2.95658 8.37199 2.75387 8.70919 2.43882 8.90712C2.22447 9.04185 2.08636 9.14952 1.98809 9.27759C1.77282 9.55812 1.67781 9.91265 1.72397 10.2632C1.75858 10.5262 1.9139 10.7952 2.22452 11.3332C2.53515 11.8712 2.69047 12.1403 2.90087 12.3017C3.18142 12.517 3.53599 12.612 3.88659 12.5658C4.04662 12.5448 4.2089 12.479 4.43272 12.3607C4.76167 12.1868 5.15506 12.1799 5.47728 12.3659C5.79951 12.552 5.99019 12.8961 6.00409 13.268C6.01356 13.5209 6.03773 13.6944 6.0995 13.8435C6.23483 14.1702 6.49439 14.4298 6.82108 14.5651C7.06614 14.6666 7.37674 14.6666 7.99801 14.6666C8.61927 14.6666 8.92987 14.6666 9.17493 14.5651C9.5016 14.4298 9.7612 14.1702 9.89646 13.8435C9.95826 13.6944 9.98246 13.5209 9.99193 13.2679C10.0058 12.8961 10.1965 12.552 10.5187 12.3659C10.8409 12.1798 11.2343 12.1868 11.5633 12.3607C11.7871 12.479 11.9493 12.5447 12.1093 12.5658C12.4599 12.612 12.8145 12.517 13.095 12.3017C13.3054 12.1402 13.4608 11.8712 13.7714 11.3332C14.082 10.7952 14.2374 10.5262 14.272 10.2632C14.3181 9.91265 14.2231 9.55805 14.0078 9.27752C13.9096 9.14945 13.7714 9.04179 13.5571 8.90712C13.2421 8.70919 13.0394 8.37192 13.0394 7.99986C13.0394 7.62779 13.2421 7.29066 13.5571 7.09273C13.7715 6.958 13.9096 6.8504 14.0079 6.72226C14.2232 6.44175 14.3182 6.08718 14.272 5.73658C14.2374 5.47364 14.0821 5.20463 13.7714 4.66661C13.4608 4.12859 13.3055 3.85958 13.0951 3.69813C12.8146 3.48285 12.46 3.38785 12.1094 3.43401C11.9494 3.45508 11.7871 3.52085 11.5633 3.63915C11.2343 3.81301 10.8409 3.81996 10.5187 3.63392C10.1965 3.44789 10.0058 3.10372 9.99193 2.73191C9.98246 2.47894 9.95826 2.30551 9.89646 2.15638C9.7612 1.82968 9.5016 1.57011 9.17493 1.43479Z" stroke="white" stroke-width="0.999049"/>
</svg>
