<svg width="35" height="33" viewBox="0 0 35 33" fill="none" xmlns="http://www.w3.org/2000/svg">
<path d="M18.3723 33C17.995 33 17.6612 32.9057 17.371 32.717C17.0807 32.5284 16.8703 32.2671 16.7397 31.9334C16.6091 31.5996 16.5801 31.2585 16.6526 30.9103C16.7252 30.562 16.8776 30.2717 17.1097 30.0395L30.606 16.4998L17.1097 3.00352C16.9356 2.82937 16.805 2.63346 16.7179 2.41578C16.6309 2.1981 16.5873 1.97316 16.5873 1.74097C16.5873 1.50877 16.6309 1.29109 16.7179 1.08792C16.805 0.884752 16.9356 0.696095 17.1097 0.521951C17.2839 0.347805 17.4798 0.217198 17.6975 0.130125C17.9152 0.0430523 18.1183 -0.000486031 18.307 -0.000486031C18.4957 -0.000486031 18.7351 0.0575638 19.0253 0.17366C19.2285 0.260733 19.4172 0.39134 19.5913 0.565486L34.3066 15.2807C34.6549 15.629 34.829 16.0426 34.829 16.5215C34.829 17.0004 34.6549 17.414 34.3066 17.7623L19.5913 32.4776C19.243 32.8259 18.8367 33 18.3723 33ZM33.0876 18.2412H1.74145C1.24804 18.2412 0.834445 18.0743 0.500667 17.7405C0.166889 17.4068 0 17.0004 0 16.5215C0 16.0426 0.174145 15.629 0.522435 15.2807C0.870725 14.9325 1.27706 14.7583 1.74145 14.7583H33.0876C33.5519 14.7583 33.9583 14.9325 34.3066 15.2807C34.6549 15.629 34.829 16.0426 34.829 16.5215C34.829 17.0004 34.6621 17.4068 34.3283 17.7405C33.9946 18.0743 33.581 18.2412 33.0876 18.2412Z" fill="#102865"/>
</svg>
