<svg width="81" height="46" viewBox="0 0 81 46" fill="none" xmlns="http://www.w3.org/2000/svg">
<path d="M58.217 0H22.7806C10.2196 0 0 10.2196 0 22.7806C0 35.3415 10.2196 45.5611 22.7806 45.5611H58.217C70.778 45.5611 80.9976 35.3415 80.9976 22.7806C80.9976 10.2196 70.778 0 58.217 0ZM58.217 40.4988C54.7127 40.4988 51.287 39.4596 48.3733 37.5127C45.4595 35.5658 43.1886 32.7986 41.8475 29.561C40.5064 26.3235 40.1556 22.7609 40.8392 19.3239C41.5229 15.8869 43.2104 12.7298 45.6883 10.2519C48.1663 7.77396 51.3233 6.08646 54.7603 5.4028C58.1973 4.71914 61.7599 5.07002 64.9975 6.41107C68.235 7.75212 71.0023 10.0231 72.9492 12.9369C74.8961 15.8506 75.9352 19.2762 75.9352 22.7806C75.9302 27.4782 74.0618 31.982 70.7401 35.3037C67.4184 38.6254 62.9146 40.4938 58.217 40.4988Z" fill="white"/>
</svg>
